<svg width="400" height="424" viewBox="0 0 400 424" fill="none" xmlns="http://www.w3.org/2000/svg">
<path d="M208.464 105.381C204.792 97.9623 194.211 97.9623 190.539 105.381L149.055 189.201C145.765 195.847 150.601 203.636 158.017 203.636H240.985C248.401 203.636 253.237 195.847 249.948 189.201L208.464 105.381Z" fill="#FFE0B2"/>
<path d="M219.001 96.9697C219.001 145.196 257.25 183.939 304.002 183.939C350.754 183.939 389.003 145.196 389.003 96.9697C389.003 48.7433 350.754 10 304.002 10C257.25 10 219.001 48.7433 219.001 96.9697Z" stroke="#FFE0B2" stroke-width="20"/>
<path d="M10 96.9697C10 145.196 48.2485 183.939 95.0006 183.939C141.753 183.939 180.001 145.196 180.001 96.9697C180.001 48.7433 141.753 10 95.0006 10C48.2485 10 10 48.7433 10 96.9697Z" stroke="#FFE0B2" stroke-width="20"/>
<rect width="28.5002" height="19.3939" transform="matrix(-1 0 0 1 213.751 87.2727)" fill="#FFE0B2"/>
<rect width="179.551" height="180" transform="matrix(-1 0 0 1 380.05 224)" fill="#FFCA28"/>
<rect width="219.451" height="20" transform="matrix(-1 0 0 1 400 204)" fill="white"/>
<rect width="179.551" height="20" transform="matrix(-1 0 0 1 380.05 404)" fill="white"/>
<line y1="-10" x2="200.993" y2="-10" transform="matrix(-0.099258 0.995062 0.995013 0.09975 400 224)" stroke="white" stroke-width="20"/>
<line y1="-10" x2="200.99" y2="-10" transform="matrix(-0.0992478 -0.995063 -0.995014 0.0997397 200.508 423.999)" stroke="white" stroke-width="20"/>
<ellipse cx="2.49377" cy="2.5" rx="2.49377" ry="2.5" transform="matrix(-1 0 0 1 290.274 384)" fill="white"/>
<ellipse cx="3.49127" cy="3.5" rx="3.49127" ry="3.5" transform="matrix(-1 0 0 1 300.249 374)" fill="white"/>
<ellipse cx="4.98753" cy="5" rx="4.98753" ry="5" transform="matrix(-1 0 0 1 290.274 364)" fill="white"/>
<ellipse cx="7.4813" cy="7.5" rx="7.4813" ry="7.5" transform="matrix(-1 0 0 1 310.224 344)" fill="white"/>
<ellipse cx="9.97506" cy="10" rx="9.97506" ry="10" transform="matrix(-1 0 0 1 290.274 324)" fill="white"/>
<path d="M302.244 194C302.244 182.954 293.29 174 282.244 174H232.494C215.925 174 202.494 187.431 202.494 204H302.244V194Z" fill="white"/>
<path d="M380.05 204C380.05 187.431 366.618 174 350.05 174H290.349C273.781 174 260.349 187.431 260.349 204H380.05Z" fill="white"/>
<path d="M320.199 204.875C320.199 177.33 297.87 155 270.324 155C242.779 155 220.449 177.33 220.449 204.875V209H320.199V204.875Z" fill="white"/>
<path d="M0 260H200.167V373.636C200.167 401.251 177.782 423.636 150.167 423.636H50C22.3858 423.636 0 401.251 0 373.636V260Z" fill="#BDBDBD"/>
<path d="M184.665 270H239.352C244.874 270 249.352 274.477 249.352 280V290C249.352 312.091 231.443 330 209.352 330H184.665V270Z" stroke="#BDBDBD" stroke-width="20"/>
<ellipse cx="99.7506" cy="260" rx="99.7506" ry="30" fill="#E0E0E0"/>
<ellipse cx="99.7506" cy="260" rx="79.8005" ry="20" fill="#5D4037"/>
</svg>
